<?xml version="1.0" encoding="UTF-8" standalone="no"?>
<svg
   viewBox="0 0 22 22"
   version="1.1"
   id="svg6"
   sodipodi:docname="mixer.svg"
   inkscape:version="1.2.2 (b0a8486541, 2022-12-01)"
   xmlns:inkscape="http://www.inkscape.org/namespaces/inkscape"
   xmlns:sodipodi="http://sodipodi.sourceforge.net/DTD/sodipodi-0.dtd"
   xmlns="http://www.w3.org/2000/svg"
   xmlns:svg="http://www.w3.org/2000/svg">
  <sodipodi:namedview
     id="namedview8"
     pagecolor="#ffffff"
     bordercolor="#666666"
     borderopacity="1.0"
     inkscape:showpageshadow="2"
     inkscape:pageopacity="0.0"
     inkscape:pagecheckerboard="0"
     inkscape:deskcolor="#d1d1d1"
     showgrid="false"
     inkscape:zoom="10.727273"
     inkscape:cx="10.95339"
     inkscape:cy="11.13983"
     inkscape:window-width="1920"
     inkscape:window-height="1009"
     inkscape:window-x="0"
     inkscape:window-y="0"
     inkscape:window-maximized="1"
     inkscape:current-layer="svg6" />
  <defs
     id="defs3051">
    <style
       type="text/css"
       id="current-color-scheme">
      .ColorScheme-Text {
        color:#232629;
      }
      </style>
  </defs>
  <path
     style="fill:#f0f1f2;fill-opacity:1;stroke:none"
     d="M 15.5 6 C 14.845303 6 14.297456 6.417435 14.091797 7 L 3 7 L 3 8 L 14.091797 8 C 14.297802 8.58192 14.845763 9 15.5 9 C 16.154237 9 16.702198 8.58192 16.908203 8 L 19 8 L 19 7 L 16.908203 7 C 16.702544 6.417435 16.154697 6 15.5 6 z M 8.5 13 C 7.845299 13 7.2974579 13.41743 7.0917969 14 L 3 14 L 3 15 L 7.0917969 15 C 7.2978029 15.581925 7.84576 16 8.5 16 C 9.15424 16 9.7021971 15.581925 9.9082031 15 L 19 15 L 19 14 L 9.9082031 14 C 9.7025421 13.41743 9.154701 13 8.5 13 z "
     class="ColorScheme-Text"
     id="path4" />
</svg>
